<?xml version="1.0" standalone="no"?>
<!DOCTYPE svg PUBLIC "-//W3C//DTD SVG 1.1//EN" "http://www.w3.org/Graphics/SVG/1.1/DTD/svg11.dtd" >
<svg xmlns="http://www.w3.org/2000/svg">
<metadata></metadata>
<defs>
<font id="rbno2_lightregular" horiz-adv-x="811" >
<font-face units-per-em="2048" ascent="1536" descent="-512" />
<missing-glyph horiz-adv-x="382" />
<glyph horiz-adv-x="2048" />
<glyph horiz-adv-x="2048" />
<glyph unicode="&#xd;" horiz-adv-x="2048" />
<glyph unicode=" "  horiz-adv-x="382" />
<glyph unicode="&#x09;" horiz-adv-x="382" />
<glyph unicode="&#xa0;" horiz-adv-x="382" />
<glyph unicode="!" horiz-adv-x="366" d="M186 0v186h82v-186h-82zM186 393v1053h82v-1053h-82z" />
<glyph unicode="&#x22;" horiz-adv-x="442" d="M90 1032v414h82v-414h-82zM276 1032v414h82v-414h-82z" />
<glyph unicode="#" horiz-adv-x="1054" d="M39 557v64h301l20 247h-280v62h287l43 516h84l-45 -516h186l45 516h82l-45 -516h293v-62h-297l-23 -247h279v-64h-283l-49 -557h-82l47 557h-184l-49 -557h-82l47 557h-295zM422 621h186l21 247h-185z" />
<glyph unicode="$" horiz-adv-x="755" d="M90 184v291h82v-291q0 -48 30 -85.5t74 -37.5h207q44 0 73.5 37.5t29.5 85.5v291q0 55 -21.5 84.5t-79.5 71.5q-183 134 -249 178q-69 47 -98 93.5t-29 109.5v248q0 76 54.5 131t131.5 55h45v102h59v-102h23q76 0 130 -54.5t54 -131.5v-289h-82v289q0 48 -29 85t-73 37 h-127q-44 0 -73 -37t-29 -85v-228q0 -30 5 -53t11 -37t23 -29.5t27 -23t38 -25.5q34 -24 137.5 -98.5t124.5 -89.5q38 -26 62 -54t33.5 -56t12.5 -47t3 -44v-291q0 -76 -55 -130t-132 -54h-84v-145h-59v145h-64q-77 0 -131.5 54t-54.5 130z" />
<glyph unicode="%" horiz-adv-x="1171" d="M43 764v186v82v332q0 34 24 58t58 24h41h125h41q35 0 59.5 -24t24.5 -58v-332v-82v-186q0 -34 -24.5 -58t-59.5 -24h-41h-125h-41q-34 0 -58 24t-24 58zM125 764q0 -8 6.5 -14.5t13.5 -6.5h21h125h20q9 0 15 6.5t6 14.5v186v82v332q0 8 -6 14t-15 6h-20h-125h-21 q-7 0 -13.5 -6t-6.5 -14v-332v-82v-186zM244 0l577 1446h84l-579 -1446h-82zM745 82v332v82v186q0 34 24 58t58 24h43h123h41q35 0 59.5 -24t24.5 -58v-186v-82v-332q0 -34 -24.5 -58t-59.5 -24h-41h-123h-43q-34 0 -58 24t-24 58zM827 82q0 -8 7 -14.5t16 -6.5h20h123h21 q9 0 14.5 6.5t5.5 14.5v332v82v186q0 8 -5.5 14t-14.5 6h-21h-123h-20q-9 0 -16 -6t-7 -14v-186v-82v-332z" />
<glyph unicode="&#x26;" horiz-adv-x="808" d="M96 186v455h2q10 94 92 141q-71 54 -71 148v330q0 75 51.5 129t126.5 57h6h23h102q76 0 131 -55t55 -131v-228h-84v228q0 48 -29 86t-73 38h-125q-44 0 -73 -38t-29 -86v-330q0 -48 29 -86.5t73 -38.5h457v-62h-125v-557q0 -76 -54.5 -131t-131.5 -55h-166q-77 0 -132 55 t-55 131zM178 186q0 -48 30 -86.5t75 -38.5h166q44 0 73 38.5t29 86.5v557h-268q-45 0 -75 -37t-30 -85v-435z" />
<glyph unicode="'" horiz-adv-x="241" d="M84 1032l43 414h94l-71 -414h-66z" />
<glyph unicode="(" horiz-adv-x="673" d="M201 20v1362q0 77 54 132t132 55h123v-62h-123q-45 0 -74.5 -38.5t-29.5 -86.5v-1362q0 -48 29.5 -85t74.5 -37h123v-62h-123q-78 0 -132 53.5t-54 130.5z" />
<glyph unicode=")" horiz-adv-x="694" d="M201 -102h123q45 0 74.5 37t29.5 85v1362q0 48 -29.5 86.5t-74.5 38.5h-123v62h123q78 0 132 -55t54 -132v-1362q0 -77 -54 -130.5t-132 -53.5h-123v62z" />
<glyph unicode="*" horiz-adv-x="894" d="M188 1223l29 77l189 -69v215h81v-215l189 69l29 -77l-191 -70l111 -162l-68 -47l-111 162l-110 -162l-68 47l111 162z" />
<glyph unicode="+" horiz-adv-x="1124" d="M172 567v84h348v369h84v-369h348v-84h-348v-368h-84v368h-348z" />
<glyph unicode="," horiz-adv-x="354" d="M125 -186l41 372h82l-82 -372h-41z" />
<glyph unicode="-" horiz-adv-x="505" d="M72 557v84h362v-84h-362z" />
<glyph unicode="." horiz-adv-x="421" d="M164 0v186h82v-186h-82z" />
<glyph unicode="/" horiz-adv-x="704" d="M72 0l475 1446h82l-475 -1446h-82z" />
<glyph unicode="0" horiz-adv-x="724" d="M74 186v1074q0 77 55 134.5t131 57.5h207q76 0 131 -57.5t55 -134.5v-1074q0 -77 -55 -134.5t-131 -57.5h-207q-76 0 -131 57.5t-55 134.5zM158 186q0 -49 29 -90t73 -41h207q44 0 74 41t30 90v1074q0 49 -30 90t-74 41h-207q-44 0 -73 -41t-29 -90v-1074z" />
<glyph unicode="1" horiz-adv-x="724" d="M119 1198v82l227 166h84v-1446h-84v1343z" />
<glyph unicode="2" horiz-adv-x="724" d="M74 0v61v129q0 76 98 216q186 267 277 409q6 9 28 39.5t29 45t15.5 50.5t8.5 82v228q0 48 -29.5 86t-74.5 38h-125q-44 0 -73 -38t-29 -86v-289h-84v289q0 76 54.5 131t131.5 55h125q76 0 131 -55t55 -131v-248q0 -62 -21.5 -115.5t-82.5 -142.5q-158 -228 -266 -394 q-32 -45 -45.5 -64.5t-26 -49.5t-12.5 -56v-129h473v-61h-557z" />
<glyph unicode="3" horiz-adv-x="724" d="M84 186v248h84v-248q0 -48 29 -86.5t73 -38.5h166q45 0 75 38.5t30 86.5v435q0 48 -29.5 85t-75.5 37h-188v62h168q44 0 73 38.5t29 86.5v330q0 48 -29 86t-73 38h-125q-44 0 -73.5 -38t-29.5 -86v-228h-84v228q0 76 55 131t132 55h123h2h4q75 -2 128.5 -56t53.5 -130 v-330q0 -91 -74 -148q82 -47 95 -141v-455q0 -77 -54.5 -131.5t-132.5 -54.5h-166q-76 0 -131 55t-55 131z" />
<glyph unicode="4" horiz-adv-x="724" d="M43 475v62l373 909h41h43h39v-909h166v-62h-166v-475h-82v475h-414zM127 537h330v804z" />
<glyph unicode="5" horiz-adv-x="724" d="M115 186v269h84v-269q0 -48 29 -86.5t73 -38.5h145q44 0 73.5 38.5t29.5 86.5v516q0 48 -29.5 85.5t-73.5 37.5h-227h-82v64v495v62h475v-62h-393v-495h227q76 0 131.5 -55.5t55.5 -131.5v-516q0 -76 -55 -131t-132 -55h-145q-77 0 -131.5 55t-54.5 131z" />
<glyph unicode="6" horiz-adv-x="724" d="M111 186v269v825h2q8 71 60 118.5t124 47.5h145q77 0 132 -55t55 -131v-187h-84v187q0 48 -29.5 86t-73.5 38h-145q-44 0 -73 -38t-29 -86v-404q48 33 102 33h145q76 0 131.5 -55.5t55.5 -131.5v-516q0 -76 -55 -131t-132 -55h-145q-77 0 -131.5 55t-54.5 131zM195 186 q0 -48 29 -86.5t73 -38.5h145q44 0 73.5 38.5t29.5 86.5v516q0 48 -29.5 85.5t-73.5 37.5h-145q-44 0 -73 -37.5t-29 -85.5v-247v-269z" />
<glyph unicode="7" horiz-adv-x="724" d="M111 1384v62h538v-62l-311 -1384h-82l309 1384h-454z" />
<glyph unicode="8" horiz-adv-x="724" d="M82 186v471q0 50 26 93.5t70 68.5q-74 54 -74 148v293q0 77 54.5 131.5t130.5 54.5h145q77 0 132 -55t55 -131v-293q0 -91 -74 -148q42 -25 68 -68.5t26 -93.5v-471q0 -76 -54.5 -131t-131.5 -55h-187q-76 0 -131 55t-55 131zM166 186q0 -48 29 -86.5t73 -38.5h187 q44 0 73 38.5t29 86.5v471q0 48 -29 85.5t-73 37.5h-21h-145h-21q-44 0 -73 -37.5t-29 -85.5v-471zM186 967q0 -48 29.5 -86.5t73.5 -38.5h145q44 0 73.5 38.5t29.5 86.5v293q0 48 -29.5 86t-73.5 38h-145q-44 0 -73.5 -38t-29.5 -86v-293z" />
<glyph unicode="9" horiz-adv-x="724" d="M72 784v476q0 76 55 131t131 55h186q77 0 132 -55t55 -131v-619v-455q0 -71 -48 -123.5t-118 -60.5v-2h-186q-76 0 -130.5 54.5t-54.5 131.5v207h82v-207q0 -48 29.5 -86.5t73.5 -38.5h165q44 0 73.5 38.5t29.5 86.5v445q-48 -33 -103 -33h-186q-76 0 -131 55t-55 131z M156 784q0 -48 29 -85t73 -37h186q44 0 73.5 37t29.5 85v476q0 48 -29.5 86t-73.5 38h-186q-44 0 -73 -38t-29 -86v-476z" />
<glyph unicode=":" horiz-adv-x="415" d="M164 0v186h82v-186h-82zM164 846v186h82v-186h-82z" />
<glyph unicode=";" horiz-adv-x="481" d="M170 -186l41 372h84l-84 -372h-41zM211 846v186h84v-186h-84z" />
<glyph unicode="&#x3c;" horiz-adv-x="991" d="M170 557v84l702 391v-102l-565 -332l565 -330v-102z" />
<glyph unicode="=" horiz-adv-x="1081" d="M137 424v84h772v-84h-772zM137 686v84h772v-84h-772z" />
<glyph unicode="&#x3e;" horiz-adv-x="987" d="M170 166v102l565 330l-565 332v102l702 -391v-84z" />
<glyph unicode="?" horiz-adv-x="735" d="M154 971v289q0 76 55 131t131 55h125q77 0 131.5 -55t54.5 -131v-248q-2 -62 -22 -123q-9 -28 -44.5 -85.5t-79.5 -121.5t-52 -78q-6 -10 -8.5 -22t-3 -18.5t0 -23.5t0.5 -22v-145h-82v145q0 61 4.5 89.5t22.5 51.5q141 193 158 230q10 18 15.5 49t5.5 52l1 22v248 q0 48 -29 86t-73 38h-125q-45 0 -74.5 -38t-29.5 -86v-289h-82zM360 0v186h82v-186h-82z" />
<glyph unicode="@" horiz-adv-x="1277" d="M168 -143v1321q0 76 54.5 130t131.5 54h557q77 0 131 -54t54 -130v-992q0 -77 -54.5 -131.5t-130.5 -54.5h-20q-53 0 -89 36t-36 89v846h-207q-4 0 -20 -4q-18 -6 -29.5 -22t-11.5 -36v-784q0 -20 11.5 -36.5t29.5 -22.5l20 -5h125v-61h-125h-20q-51 0 -87 36.5t-36 88.5 v784q0 51 36 87t87 36h20h291v-61v-846q0 -20 11 -36.5t30 -22.5q15 -5 20 -5q44 0 73.5 38.5t29.5 86.5v992q0 48 -29.5 85t-73.5 37h-557q-45 0 -74.5 -37t-29.5 -85v-1321q0 -48 29.5 -86.5t74.5 -38.5h764v-62h-764q-76 0 -131 55t-55 132z" />
<glyph unicode="A" horiz-adv-x="768" d="M53 2l269 1446h43h30h45l269 -1446h-82l-86 475h-324l-86 -475h-78zM229 539h301l-149 829z" />
<glyph unicode="B" horiz-adv-x="755" d="M111 0v764v61v621h63h21h241q77 -2 131 -56t54 -130v-310q0 -85 -70 -145q48 -25 80.5 -69t32.5 -95v-455q0 -68 -44.5 -120t-111.5 -64v-2h-313h-2h-82zM195 61h282q44 0 73.5 38.5t29.5 86.5v455q0 46 -35 84.5t-80 38.5h-31h-239v-703zM195 825h239q44 0 73.5 38.5 t29.5 86.5v310q0 48 -29.5 86t-73.5 38h-239v-559z" />
<glyph unicode="C" horiz-adv-x="768" d="M113 186v1074q0 77 55 134.5t131 57.5h186q76 0 131.5 -57.5t55.5 -134.5v-269h-84v269q0 49 -29.5 90t-73.5 41h-186q-44 0 -73 -41t-29 -90v-1074q0 -48 29 -85.5t73 -37.5h186q44 0 73.5 37.5t29.5 85.5v310h84v-310q0 -76 -52.5 -134t-125.5 -58h-195 q-76 0 -131 57.5t-55 134.5z" />
<glyph unicode="D" horiz-adv-x="788" d="M113 0v1446h63h21h288q90 0 138.5 -52.5t48.5 -133.5v-1074q0 -76 -55 -131t-132 -55h-288h-2h-82zM197 61h288q44 0 73.5 38.5t29.5 86.5v1074q0 48 -29.5 86t-73.5 38h-288v-1323z" />
<glyph unicode="E" horiz-adv-x="663" d="M111 0v1446h518v-62h-434v-579h350v-62h-350v-682h442v-61h-442h-21h-63z" />
<glyph unicode="F" horiz-adv-x="622" d="M111 0v743v62v579v62h84h413v-62h-413v-579h370v-62h-370v-743h-84z" />
<glyph unicode="G" horiz-adv-x="798" d="M111 186v1074q0 77 55 134.5t131 57.5h197q75 -1 128.5 -58t53.5 -134v-269h-84v269q0 49 -29.5 90t-73.5 41h-192q-44 0 -73 -41t-29 -90v-1074q0 -49 29 -90t73 -41h207q44 0 74 41t30 90v412h-227v64h309v-64v-412q0 -77 -54 -134.5t-130 -57.5h-209q-76 0 -131 57.5 t-55 134.5z" />
<glyph unicode="H" d="M113 0v1446h84v-641h413v641h84v-1446h-84v743h-413v-743h-84z" />
<glyph unicode="I" horiz-adv-x="342" d="M133 0v1446h84v-1446h-84z" />
<glyph unicode="J" horiz-adv-x="673" d="M109 123v332h84v-332q0 -21 11 -39.5t29 -24.5q12 -4 21 -4h145q9 0 21 4q17 6 29 25t12 39v1323h82v-1323q0 -52 -36.5 -90.5t-86.5 -38.5h-17h-4h-145h-4h-17q-51 0 -87.5 39t-36.5 90z" />
<glyph unicode="K" horiz-adv-x="706" d="M113 0v1446h80v-733l374 733h84l-301 -586l322 -860h-84l-281 772l-114 -223v-549h-80z" />
<glyph unicode="L" horiz-adv-x="628" d="M111 0v61v1385h84v-1385h391v-61h-391h-84z" />
<glyph unicode="M" horiz-adv-x="1011" d="M111 0v1446h65h19h61l256 -1280l231 1280h70h14h70v-1446h-84v1376l-252 -1335h-2h-92l-272 1327v-1368h-84z" />
<glyph unicode="N" horiz-adv-x="808" d="M113 0v1446h65h19h63l350 -1395v1395h82v-1446h-69h-13h-84l-329 1370v-1370h-84z" />
<glyph unicode="O" horiz-adv-x="815" d="M113 186v1074q0 77 55 134.5t131 57.5h207q76 0 131 -57.5t55 -134.5v-1074q0 -77 -55 -134.5t-131 -57.5h-207q-76 0 -131 57.5t-55 134.5zM197 186q0 -49 29 -90t73 -41h207q44 0 74 41t30 90v1074q0 49 -30 90t-74 41h-207q-44 0 -73 -41t-29 -90v-1074z" />
<glyph unicode="P" horiz-adv-x="755" d="M113 0v1446h63h21h288q77 0 132 -55t55 -131v-414q0 -76 -55 -130t-132 -54h-288v-662h-84zM197 723h288q44 0 73.5 37.5t29.5 85.5v414q0 48 -29.5 86t-73.5 38h-288v-661z" />
<glyph unicode="Q" d="M115 186v1074q0 78 54 135t130 57h207q76 0 131 -57t55 -135v-1074q0 -49 -23.5 -91.5t-62.5 -67.5l72 -154h-68l-75 127q-16 -4 -29 -4h-207q-76 0 -130 56.5t-54 133.5zM197 186q0 -48 29 -87.5t73 -39.5h207q44 0 74 39.5t30 87.5v1074q0 49 -30 90t-74 41h-207 q-44 0 -73 -41t-29 -90v-1074z" />
<glyph unicode="R" horiz-adv-x="759" d="M113 0v1446h61h21h288q77 0 132 -55t55 -131v-351q0 -72 -45 -121.5t-105 -62.5l219 -725h-90l-221 723h-233v-723h-82zM195 784h288q44 0 73.5 38.5t29.5 86.5v351q0 48 -29.5 86t-73.5 38h-288v-600z" />
<glyph unicode="S" horiz-adv-x="768" d="M96 186v289h84v-289q0 -49 29.5 -90t73.5 -41h206q44 0 74.5 41.5t30.5 89.5v289q0 55 -21.5 84.5t-80.5 71.5q-145 109 -250 180q-68 45 -96.5 92t-28.5 109v248q0 77 54 134.5t130 57.5h168h2q76 -1 130 -58t54 -134v-289h-84v289q0 49 -29 90t-73 41h-168 q-44 0 -73 -41t-29 -90v-228q0 -36 5.5 -61t23 -45t30 -29.5t45.5 -32.5q13 -9 118.5 -84.5t145.5 -101.5q38 -26 61.5 -54t33 -56.5t12 -47.5t2.5 -45v-289q0 -77 -54 -134t-130 -58h-213q-75 1 -129 58t-54 134z" />
<glyph unicode="T" horiz-adv-x="641" d="M10 1384v62h271h81h269v-62h-269v-1384h-81v1384h-271z" />
<glyph unicode="U" d="M125 186v1260h84v-1260q0 -49 29 -90t73 -41h187q44 0 73 41t29 90v1260h84v-1260q0 -77 -55 -134.5t-131 -57.5h-187q-76 0 -131 57.5t-55 134.5z" />
<glyph unicode="V" horiz-adv-x="700" d="M80 1446h84l196 -1249l195 1249h84l-227 -1446h-21h-63h-21z" />
<glyph unicode="W" horiz-adv-x="1140" d="M61 1446h84l197 -1249l195 1249h84l196 -1249l195 1249h84l-228 -1446h-20h-64h-20l-184 1184l-187 -1184h-20h-64h-20z" />
<glyph unicode="X" horiz-adv-x="704" d="M57 0l248 784h2l-207 662h82l176 -559l174 559h84l-208 -662h2l247 -784h-82l-217 690l-217 -690h-84z" />
<glyph unicode="Y" horiz-adv-x="718" d="M45 1446h84l238 -686l237 686h82l-278 -805v-641h-82v641z" />
<glyph unicode="Z" horiz-adv-x="671" d="M47 0v61l475 1323h-411v62h495v-62l-475 -1323h496v-61h-580z" />
<glyph unicode="[" horiz-adv-x="460" d="M109 -164v1733h61h20h207v-62h-207v-1609h207v-62h-207h-20h-61z" />
<glyph unicode="\" horiz-adv-x="415" d="M-86 1448h82l475 -1446h-82z" />
<glyph unicode="]" horiz-adv-x="509" d="M109 -102h206v1609h-206v62h206h21h61v-1733h-61h-21h-206v62z" />
<glyph unicode="^" horiz-adv-x="1705" />
<glyph unicode="_" horiz-adv-x="1015" d="M-20 -317h1064v-89h-1064v89z" />
<glyph unicode="`" horiz-adv-x="620" d="M176 1384h125l129 -196h-74z" />
<glyph unicode="a" horiz-adv-x="638" d="M72 129v387q0 51 36 87t87 36h22h246v268q0 22 -11.5 41t-29.5 25q-12 4 -21 4h-163q-9 0 -21 -4q-19 -6 -31 -25t-12 -41v-143h-82v143q0 53 36.5 92t88.5 39h21h163h2h19q52 0 88.5 -39t36.5 -92v-846v-61h-84h-246h-22q-50 0 -86.5 38.5t-36.5 90.5zM154 129 q0 -20 12 -38.5t29 -24.5q20 -5 22 -5h246v517h-246q-2 0 -22 -5q-18 -6 -29.5 -21.5t-11.5 -35.5v-387z" />
<glyph unicode="b" horiz-adv-x="675" d="M102 0v1446h82v-412h312q34 0 58 -24t24 -58v-823q0 -52 -36.5 -90.5t-88.5 -38.5h-269h-82zM184 61h248q6 0 21 5q19 6 31 24t12 39v823q0 8 -7 14.5t-16 6.5h-289v-912z" />
<glyph unicode="c" horiz-adv-x="641" d="M94 129v778q0 53 36 92t87 39h23h163h21q52 0 88.5 -39t36.5 -92v-184h-84v184q0 22 -11.5 41t-29.5 25q-12 4 -21 4h-163q-7 0 -23 -4q-17 -6 -29 -25t-12 -41v-778q0 -20 12 -38.5t29 -24.5q20 -5 23 -5h163q6 0 21 5q18 6 29.5 24t11.5 39v262h84v-262 q0 -52 -36.5 -90.5t-88.5 -38.5h-21h-163h-23q-50 0 -86.5 38.5t-36.5 90.5z" />
<glyph unicode="d" horiz-adv-x="673" d="M100 129v821q0 34 24 58t58 24h312v414h81v-1446h-81h-269q-52 0 -88.5 38.5t-36.5 90.5zM182 129q0 -21 12 -39t31 -24q15 -5 21 -5h248v910h-289q-9 0 -16 -6.5t-7 -14.5v-821z" />
<glyph unicode="e" horiz-adv-x="641" d="M90 129v387v62v329q0 53 36 92t87 39h23h184h20q52 0 88.5 -39t36.5 -92v-329v-62h-84h-309v-387q0 -20 12 -38.5t29 -24.5q20 -5 23 -5l163 2q6 0 21 5q18 6 29.5 24t11.5 39v221h84v-221q0 -52 -36.5 -90.5t-88.5 -38.5h-19h-2l-163 -2h-5h-18q-50 0 -86.5 38.5 t-36.5 90.5zM172 578h309v329q0 22 -11.5 41t-29.5 25q-12 4 -20 4h-184q-7 0 -23 -4q-17 -6 -29 -25t-12 -41v-329z" />
<glyph unicode="f" horiz-adv-x="385" d="M23 971v61h122v289q0 52 37 88.5t88 36.5h21h82v-62h-82q-9 0 -21 -4q-41 -13 -41 -59v-289h123v-61h-123v-971h-84v971h-122z" />
<glyph unicode="g" horiz-adv-x="671" d="M100 125v793q0 51 36 85.5t89 34.5h21l248 -2h81v-61v-912v-63v-205q0 -53 -36 -89t-88 -36h-17h-4h-143h-4h-17q-52 0 -88.5 36t-36.5 89v103h84v-103q0 -46 41 -59q12 -4 21 -4h143q9 0 21 4q43 14 43 59v205h-248h-21q-53 0 -89 36t-36 89zM182 125q0 -42 43 -59 q9 -3 21 -3h248v912l-248 2q-9 0 -21 -4q-43 -14 -43 -55v-793z" />
<glyph unicode="h" horiz-adv-x="671" d="M102 0v1446h82v-414h312q34 0 58 -24t24 -58v-950h-82v950q0 8 -7 14.5t-16 6.5h-289v-971h-82z" />
<glyph unicode="i" horiz-adv-x="299" d="M104 0v1032h84v-1032h-84zM104 1159v166h84v-166h-84z" />
<glyph unicode="j" horiz-adv-x="342" d="M14 -270h62q8 0 20 4q41 13 41 57v1241h84v-1241q0 -51 -36.5 -87t-88.5 -36h-20h-62v62zM137 1159v166h84v-166h-84z" />
<glyph unicode="k" horiz-adv-x="620" d="M102 0v1446h78v-895l316 481h82l-250 -389l270 -643h-76l-243 559l-99 -145v-414h-78z" />
<glyph unicode="l" horiz-adv-x="299" d="M109 0v1446h84v-1446h-84z" />
<glyph unicode="m" horiz-adv-x="1067" d="M102 0v950q0 34 24.5 61t57.5 27h310h84h309q33 0 57.5 -27t24.5 -61v-950h-82v950q0 8 -7 17.5t-14 9.5h-288v-21v-956h-84v956v21h-289q-7 0 -14 -9.5t-7 -17.5v-950h-82z" />
<glyph unicode="n" horiz-adv-x="671" d="M102 0v950q0 34 24.5 61t57.5 27h310q35 0 59.5 -27t24.5 -61v-950h-84v950q0 8 -6.5 17.5t-14.5 9.5h-268q-7 0 -14 -9.5t-7 -17.5v-950h-82z" />
<glyph unicode="o" horiz-adv-x="673" d="M102 129v778q0 53 36 92t87 39h228l16 -2q46 -6 77.5 -44t31.5 -85v-778q0 -52 -36.5 -90.5t-88.5 -38.5h-228l-16 2q-44 4 -75.5 42.5t-31.5 84.5zM184 129q0 -20 12 -38.5t29 -24.5q20 -5 23 -5h184q6 0 21 5q18 6 29.5 24t11.5 39v778q0 22 -11.5 41t-29.5 25 q-12 4 -21 4h-184q-7 0 -23 -4q-17 -6 -29 -25t-12 -41v-778z" />
<glyph unicode="p" horiz-adv-x="673" d="M102 -330v1362h82h310q35 0 59.5 -24t24.5 -58v-825q0 -53 -36 -89t-89 -36h-269v-330h-82zM184 61h248q6 0 21 5q41 13 41 59v825q0 8 -6 14.5t-15 6.5h-289v-910z" />
<glyph unicode="q" horiz-adv-x="673" d="M102 125v825q0 34 24.5 58t59.5 24h310h82v-1362h-82v330h-269q-53 0 -89 36t-36 89zM186 125q0 -46 41 -59q15 -5 21 -5h248v910h-289q-9 0 -15 -6.5t-6 -14.5v-825z" />
<glyph unicode="r" horiz-adv-x="417" d="M104 0v907q0 53 35.5 89t87.5 36h166v-57q-154 0 -169 -4q-8 -2 -13 -6q-25 -20 -25 -58v-907h-82z" />
<glyph unicode="s" horiz-adv-x="559" d="M63 129v242h82v-242q0 -20 12 -38.5t29 -24.5q20 -5 23 -5h143q6 0 21 5q18 6 29.5 24t11.5 39v262q0 39 -16.5 59.5t-47.5 36.5q-36 19 -112 55t-93 44q-29 15 -47 33.5t-25 42t-8.5 38.5t-1.5 43v164q0 53 36 92t87 39h23h123h20q51 0 88 -39t37 -92v-184h-84v184 q0 22 -11.5 41t-29.5 25q-12 4 -20 4h-123q-7 0 -23 -4q-17 -6 -29 -25t-12 -41v-164q0 -32 8.5 -50.5t18.5 -25.5t37 -22q31 -18 108.5 -53t104.5 -49q34 -16 53 -48.5t21 -56.5l2 -24v-285q0 -52 -36.5 -90.5t-88.5 -38.5h-21h-143h-23q-50 0 -86.5 38.5t-36.5 90.5z" />
<glyph unicode="t" horiz-adv-x="382" d="M16 971v63h123v289h84v-289h123v-63h-123v-846q0 -46 41 -59q15 -5 21 -5h82v-61h-82h-21q-52 0 -88.5 36t-36.5 89v846h-123z" />
<glyph unicode="u" horiz-adv-x="632" d="M102 129v903h82v-903q0 -20 12 -38.5t29 -24.5q20 -5 23 -5h205v971h84v-973v-59h-289h-23q-50 0 -86.5 38.5t-36.5 90.5z" />
<glyph unicode="v" horiz-adv-x="548" d="M25 1032h73l176 -983l179 983h67l-186 -1032h-51h-15h-57z" />
<glyph unicode="w" horiz-adv-x="894" d="M12 1032h78l172 -948l141 948h66h2l139 -948l174 948h76l-184 -1032h-58h-16h-51l-115 801l-114 -801h-52h-14h-57z" />
<glyph unicode="x" horiz-adv-x="598" d="M14 0l240 535l-10 22l-209 475h76l184 -403l180 403h76l-219 -489l239 -543h-73l-205 453l-203 -453h-76z" />
<glyph unicode="y" horiz-adv-x="598" d="M37 1032h80l178 -909l201 909h77l-297 -1362h-77l73 330h-28z" />
<glyph unicode="z" horiz-adv-x="518" d="M27 0v61l370 910h-329v61h413v-61l-364 -910h364v-61h-454z" />
<glyph unicode="{" horiz-adv-x="655" d="M106 764v61q44 0 74.5 37.5t30.5 85.5v434q0 77 54 132t130 55h125v-62h-125q-44 0 -73 -38.5t-29 -86.5v-434q0 -47 -22.5 -87.5t-61.5 -65.5q39 -25 61.5 -66t22.5 -90v-619q0 -48 29 -85t73 -37h125v-62h-125q-77 0 -130.5 54t-53.5 130v619q0 48 -30.5 86.5 t-74.5 38.5z" />
<glyph unicode="|" horiz-adv-x="464" d="M190 0v1446h84v-1446h-84z" />
<glyph unicode="}" horiz-adv-x="616" d="M106 -102h125q44 0 73.5 37t29.5 85v619q0 49 22.5 90t61.5 66q-39 25 -61.5 65.5t-22.5 87.5v434q0 48 -29.5 86.5t-73.5 38.5h-125v62h125q76 0 130.5 -55t54.5 -132v-434q0 -48 30 -85.5t74 -37.5v-61q-44 0 -74 -38.5t-30 -86.5v-619q0 -76 -54 -130t-131 -54h-125 v62z" />
<glyph unicode="~" horiz-adv-x="1705" />
<glyph unicode="&#xa1;" horiz-adv-x="366" d="M109 0v1053h81v-1053h-81zM109 1260v186h81v-186h-81z" />
<glyph unicode="&#xa2;" horiz-adv-x="641" d="M102 125v784q0 51 36 87t87 36h21h49v125h63v-125h54h20q52 0 88.5 -36t36.5 -87v-186h-84v186q0 20 -11 36t-30 22q-12 4 -20 4h-166q-5 0 -21 -4q-18 -6 -29.5 -22t-11.5 -36v-784q0 -20 11.5 -36.5t29.5 -22.5q20 -5 21 -5h166q5 0 20 5q19 6 30 22.5t11 36.5v268h84 v-268q0 -53 -36.5 -89t-88.5 -36h-20h-54v-143h-63v143h-49h-21q-51 0 -87 36.5t-36 88.5z" />
<glyph unicode="&#xa3;" horiz-adv-x="860" d="M35 0v61h123v11v590h-123v61h123v537q0 76 55 131t131 55h145q77 0 132 -55t55 -131v-248h-84v248q0 48 -29.5 86t-73.5 38h-145q-44 0 -73 -38t-29 -86v-537h350v-61h-350v-601h577v-61h-784z" />
<glyph unicode="&#xa7;" horiz-adv-x="649" d="M57 166v39v145h84v-164h-2h2q0 -48 29.5 -86.5t73.5 -38.5h127q41 0 69 33.5t33 77.5v33v123q0 37 -5.5 61.5t-23.5 45t-29 29t-46 32.5q-27 19 -110.5 78.5t-119.5 84.5q-63 41 -78 114t25 136q0 1 3 5.5t8.5 11.5t8.5 12q-49 57 -49 135v152v39q2 75 56.5 128.5 t130.5 53.5h125q77 0 131.5 -55t54.5 -131v-166h-84v166h2h-2q0 48 -29 86t-73 38h-125q-45 0 -75 -38t-30 -86v-166q0 -29 6 -52t10.5 -35.5t25 -31t27 -23t38.5 -26.5q25 -17 65.5 -46t90 -64.5t71.5 -51.5q63 -41 78 -114.5t-25 -137.5q-12 -17 -18 -27q47 -58 47 -137 v-162q0 -77 -54 -131.5t-130 -54.5h-127q-71 0 -124 48t-61 118h-2zM130.5 793.5q15.5 -42.5 55.5 -68.5q150 -112 244 -174q3 -2 31 -23l14 19q21 39 6.5 82t-53.5 69q-135 99 -246 174q-5 4 -15 11.5t-15 11.5q-9 -15 -15 -21q-22 -38 -6.5 -80.5z" />
<glyph unicode="&#xa9;" horiz-adv-x="1081" d="M143 309v826q0 129 91 220t219 91h186q128 0 218.5 -91t90.5 -220v-826q0 -127 -91 -218t-218 -91h-186q-128 0 -219 91t-91 218zM225 309q0 -104 63.5 -176t164.5 -72h186q99 0 163 72.5t64 175.5v826q0 105 -63.5 176t-163.5 71h-186q-101 0 -164.5 -71t-63.5 -176 v-826zM350 393v660q8 65 54 111.5t110 52.5v2h41q76 0 131 -55t55 -132v-166h-82v166q0 48 -29.5 86.5t-74.5 38.5h-20q-44 0 -73.5 -38.5t-29.5 -86.5v-639q0 -48 29.5 -86.5t73.5 -38.5h20q45 0 74.5 38.5t29.5 86.5v228h82v-228q0 -75 -51 -129t-125 -57h-30 q-76 0 -130.5 54.5t-54.5 131.5z" />
<glyph unicode="&#xad;" horiz-adv-x="505" d="M72 557v84h362v-84h-362z" />
<glyph unicode="&#xae;" horiz-adv-x="1120" d="M180 309v826q0 129 90.5 220t218.5 91h187q128 0 218.5 -91t90.5 -220v-826q0 -127 -90.5 -218t-218.5 -91h-187q-127 0 -218 91t-91 218zM262 309q0 -104 63.5 -176t163.5 -72h187q99 0 163 72.5t64 175.5v826q0 105 -63.5 176t-163.5 71h-187q-101 0 -164 -71t-63 -176 v-826zM408 248v950h20h61h103q71 0 124.5 -48t61.5 -118v-143q0 -54 -28.5 -99t-75.5 -69l145 -473h-84l-137 454h-109v-454h-81zM489 764h103q45 0 74.5 38.5t29.5 86.5v123q0 48 -29.5 85.5t-74.5 37.5h-103v-371z" />
<glyph unicode="&#xb4;" horiz-adv-x="620" d="M193 1188l129 196h124l-180 -196h-73z" />
<glyph unicode="&#xb8;" horiz-adv-x="772" d="M260 -6h82v-70h43q52 0 88.5 -37t36.5 -90t-36 -89t-89 -36h-125v64h105q14 0 20 4q41 13 41 57q0 47 -41 60q-12 4 -20 4h-105v133z" />
<glyph unicode="&#xbf;" horiz-adv-x="735" d="M154 186v289h82v-289q0 -48 29.5 -86.5t74.5 -38.5h125q44 0 73 38.5t29 86.5v248q1 82 -22 123q-16 34 -158 229q-18 23 -22.5 52t-4.5 90v145h82v-145q0 -5 -0.5 -22t0 -23.5t3 -18.5t8.5 -22q8 -14 52 -78t79.5 -121.5t44.5 -85.5q9 -27 14.5 -58t6.5 -48l1 -17v-248 q0 -76 -54.5 -131t-131.5 -55h-125q-76 0 -131 55t-55 131zM360 1260v186h82v-186h-82z" />
<glyph unicode="&#xc0;" horiz-adv-x="768" d="M53 2l269 1446h43h30h45l269 -1446h-82l-86 475h-324l-86 -475h-78zM229 539h301l-149 829zM256 1798h125l129 -196h-74z" />
<glyph unicode="&#xc1;" horiz-adv-x="768" d="M53 2l269 1446h43h30h45l269 -1446h-82l-86 475h-324l-86 -475h-78zM229 539h301l-149 829zM256 1602l129 196h125l-180 -196h-74z" />
<glyph unicode="&#xc2;" horiz-adv-x="768" d="M53 2l269 1446h43h30h45l269 -1446h-82l-86 475h-324l-86 -475h-78zM186 1602l129 196h138l129 -196h-74l-125 135l-123 -135h-74zM229 539h301l-149 829z" />
<glyph unicode="&#xc3;" horiz-adv-x="768" d="M53 2l269 1446h43h30h45l269 -1446h-82l-86 475h-324l-86 -475h-78zM180 1659l82 88q20 24 49 26.5t54 -18.5l90 -80q17 -14 30 2l66 74l37 -33l-78 -90q-22 -24 -50.5 -25.5t-53.5 19.5l-89 80q-17 10 -30 -2l-70 -74zM229 539h301l-149 829z" />
<glyph unicode="&#xc4;" horiz-adv-x="768" d="M53 2l269 1446h43h30h45l269 -1446h-82l-86 475h-324l-86 -475h-78zM215 1608v182h84v-182h-84zM229 539h301l-149 829zM467 1608v182h84v-182h-84z" />
<glyph unicode="&#xc5;" horiz-adv-x="768" d="M53 2l269 1446h43h30h45l269 -1446h-82l-86 475h-324l-86 -475h-78zM229 539h301l-149 829zM248 1675q0 57 39.5 96t95.5 39t95.5 -40.5t39.5 -96.5q0 -57 -39.5 -96t-95.5 -39q-55 0 -96 41q-39 39 -39 96zM303 1673q0 -26 23 -57q31 -23 57 -23q33 0 55.5 24.5 t22.5 57.5q0 32 -23 56t-55 24q-34 -3 -57 -26.5t-23 -55.5z" />
<glyph unicode="&#xc6;" horiz-adv-x="1159" d="M55 0l377 1446h4h62h94h217h301v-62h-301h-133v-600h350v-61h-350v-662h442v-61h-442h-21h-63v723h-279l-186 -723h-72zM328 784h264v600h-109z" />
<glyph unicode="&#xc7;" horiz-adv-x="768" d="M113 186v1074q0 77 55 134.5t131 57.5h186q76 0 131.5 -57.5t55.5 -134.5v-269h-84v269q0 49 -29.5 90t-73.5 41h-186q-44 0 -73 -41t-29 -90v-1074q0 -47 28.5 -81.5t73.5 -34.5h186q45 0 74 34.5t29 81.5v310h84v-310q0 -75 -52.5 -130.5t-125.5 -55.5h-195 q-77 0 -131.5 55t-54.5 131zM279 2h81v-70h43q52 0 88.5 -37t36.5 -90q0 -52 -36 -88t-89 -36h-124v63h104q14 0 20 4q41 13 41 57q0 47 -41 60q-12 4 -20 4h-104v133z" />
<glyph unicode="&#xc8;" horiz-adv-x="681" d="M129 0v743v62v579v21v41h518v-62h-434v-579h350v-62h-350v-682h442v-61h-442h-20h-64zM213 1798h125l129 -196h-74z" />
<glyph unicode="&#xc9;" horiz-adv-x="681" d="M129 0v743v62v579v21v41h518v-62h-434v-579h350v-62h-350v-682h442v-61h-442h-20h-64zM213 1602l129 196h125l-180 -196h-74z" />
<glyph unicode="&#xca;" horiz-adv-x="681" d="M129 0v743v62v579v21v41h518v-62h-434v-579h350v-62h-350v-682h442v-61h-442h-20h-64zM143 1602l129 196h138l129 -196h-74l-125 135l-123 -135h-74z" />
<glyph unicode="&#xcb;" horiz-adv-x="681" d="M129 0v743v62v579v21v41h518v-62h-434v-579h350v-62h-350v-682h442v-61h-442h-20h-64zM215 1608v182h84v-182h-84zM467 1608v182h84v-182h-84z" />
<glyph unicode="&#xcc;" horiz-adv-x="342" d="M45 1798h125l129 -196h-74zM133 0v1446h84v-1446h-84z" />
<glyph unicode="&#xcd;" horiz-adv-x="342" d="M45 1602l129 196h125l-180 -196h-74zM133 0v1446h84v-1446h-84z" />
<glyph unicode="&#xce;" horiz-adv-x="342" d="M-27 1602l129 196h138l129 -196h-74l-125 135l-123 -135h-74zM133 0v1446h84v-1446h-84z" />
<glyph unicode="&#xcf;" horiz-adv-x="342" d="M4 1608v182h84v-182h-84zM133 0v1446h84v-1446h-84zM256 1608v182h84v-182h-84z" />
<glyph unicode="&#xd0;" d="M-12 727v84h362v-84h-362zM133 0v1446h64h20h289q76 0 131 -55t55 -131v-1074q0 -76 -55 -131t-131 -55h-289h-2h-82zM217 61h289q44 0 73 38.5t29 86.5v1074q0 48 -29 86t-73 38h-289v-1323z" />
<glyph unicode="&#xd1;" d="M115 0v1446h65h19h63l350 -1395v1395h82v-1446h-69h-13h-84l-329 1370v-1370h-84zM201 1659l82 88q20 25 48.5 26.5t53.5 -18.5l90 -80q18 -14 31 2l65 74l37 -33l-78 -90q-22 -24 -50.5 -25.5t-53.5 19.5l-88 80q-18 11 -31 -2l-69 -74z" />
<glyph unicode="&#xd2;" d="M113 193v1067q0 77 55 134.5t131 57.5h207q76 0 131 -57.5t55 -134.5v-1067q0 -77 -55 -135t-131 -58h-207q-76 0 -131 58t-55 135zM197 193q0 -49 29.5 -90.5t72.5 -41.5h207q44 0 74 41.5t30 90.5v1067q0 49 -30 90t-74 41h-207q-44 0 -73 -41t-29 -90v-1067zM279 1798 h124l129 -196h-73z" />
<glyph unicode="&#xd3;" d="M113 193v1067q0 77 55 134.5t131 57.5h207q76 0 131 -57.5t55 -134.5v-1067q0 -77 -55 -135t-131 -58h-207q-76 0 -131 58t-55 135zM197 193q0 -49 29.5 -90.5t72.5 -41.5h207q44 0 74 41.5t30 90.5v1067q0 49 -30 90t-74 41h-207q-44 0 -73 -41t-29 -90v-1067zM279 1602 l129 196h124l-180 -196h-73z" />
<glyph unicode="&#xd4;" d="M113 193v1067q0 77 55 134.5t131 57.5h207q76 0 131 -57.5t55 -134.5v-1067q0 -77 -55 -135t-131 -58h-207q-76 0 -131 58t-55 135zM197 193q0 -49 29.5 -90.5t72.5 -41.5h207q44 0 74 41.5t30 90.5v1067q0 49 -30 90t-74 41h-207q-44 0 -73 -41t-29 -90v-1067zM207 1602 l129 196h137l129 -196h-74l-125 135l-122 -135h-74z" />
<glyph unicode="&#xd5;" d="M113 193v1067q0 77 55 134.5t131 57.5h207q76 0 131 -57.5t55 -134.5v-1067q0 -77 -55 -135t-131 -58h-207q-76 0 -131 58t-55 135zM197 193q0 -49 29.5 -90.5t72.5 -41.5h207q44 0 74 41.5t30 90.5v1067q0 49 -30 90t-74 41h-207q-44 0 -73 -41t-29 -90v-1067zM201 1659 l82 88q20 25 48.5 26.5t53.5 -18.5l90 -80q18 -14 31 2l65 74l37 -33l-78 -90q-22 -24 -50.5 -25.5t-53.5 19.5l-88 80q-18 11 -31 -2l-69 -74z" />
<glyph unicode="&#xd6;" d="M113 193v1067q0 77 55 134.5t131 57.5h207q76 0 131 -57.5t55 -134.5v-1067q0 -77 -55 -135t-131 -58h-207q-76 0 -131 58t-55 135zM197 193q0 -49 29.5 -90.5t72.5 -41.5h207q44 0 74 41.5t30 90.5v1067q0 49 -30 90t-74 41h-207q-44 0 -73 -41t-29 -90v-1067zM219 1608 v182h84v-182h-84zM471 1608v182h84v-182h-84z" />
<glyph unicode="&#xd9;" d="M125 193v1253h84v-1253q0 -49 29.5 -90.5t72.5 -41.5h187q43 0 72.5 41.5t29.5 90.5v1253h84v-1253q0 -77 -55 -135t-131 -58h-187q-76 0 -131 58t-55 135zM279 1798h124l129 -196h-73z" />
<glyph unicode="&#xda;" d="M125 193v1253h84v-1253q0 -49 29.5 -90.5t72.5 -41.5h187q43 0 72.5 41.5t29.5 90.5v1253h84v-1253q0 -77 -55 -135t-131 -58h-187q-76 0 -131 58t-55 135zM279 1602l129 196h124l-180 -196h-73z" />
<glyph unicode="&#xdb;" d="M125 193v1253h84v-1253q0 -49 29.5 -90.5t72.5 -41.5h187q43 0 72.5 41.5t29.5 90.5v1253h84v-1253q0 -77 -55 -135t-131 -58h-187q-76 0 -131 58t-55 135zM207 1602l129 196h137l129 -196h-74l-125 135l-122 -135h-74z" />
<glyph unicode="&#xdc;" d="M125 193v1253h84v-1253q0 -49 29.5 -90.5t72.5 -41.5h187q43 0 72.5 41.5t29.5 90.5v1253h84v-1253q0 -77 -55 -135t-131 -58h-187q-76 0 -131 58t-55 135zM238 1608v182h84v-182h-84zM489 1608v182h84v-182h-84z" />
<glyph unicode="&#xdd;" horiz-adv-x="724" d="M45 1446h84l238 -686l237 686h82l-278 -805v-641h-82v641zM236 1602l129 196h124l-180 -196h-73z" />
<glyph unicode="&#xdf;" horiz-adv-x="722" d="M106 0v1260q0 76 55 131t132 55h110h13h2q76 0 130 -54.5t54 -131.5v-207q0 -90 -74 -148q44 -24 70.5 -67.5t26.5 -94.5v-557q0 -76 -55 -131t-132 -55h-166v61h166q44 0 73.5 38.5t29.5 86.5v557q0 48 -29.5 86.5t-73.5 38.5h-188v62h166q44 0 74 37.5t30 85.5v207 q0 48 -30 86t-74 38h-123q-45 0 -75 -38t-30 -86v-1260h-82z" />
<glyph unicode="&#xe0;" horiz-adv-x="638" d="M72 129v387q0 51 36 87t87 36h22h246v268q0 22 -11.5 41t-29.5 25q-12 4 -21 4h-163q-9 0 -21 -4q-19 -6 -31 -25t-12 -41v-143h-82v143q0 53 36.5 92t88.5 39h21h163h2h19q52 0 88.5 -39t36.5 -92v-268v-61v-517v-61h-84h-246h-22q-50 0 -86.5 38.5t-36.5 90.5zM154 129 q0 -20 12 -38.5t29 -24.5q20 -5 22 -5h246v517h-246q-2 0 -22 -5q-18 -6 -29.5 -21.5t-11.5 -35.5v-387zM193 1384h124l129 -196h-73z" />
<glyph unicode="&#xe1;" horiz-adv-x="638" d="M72 129v387q0 51 36 87t87 36h22h246v268q0 22 -11.5 41t-29.5 25q-12 4 -21 4h-163q-9 0 -21 -4q-19 -6 -31 -25t-12 -41v-143h-82v143q0 53 36.5 92t88.5 39h21h163h2h19q52 0 88.5 -39t36.5 -92v-268v-61v-517v-61h-84h-246h-22q-50 0 -86.5 38.5t-36.5 90.5zM154 129 q0 -20 12 -38.5t29 -24.5q20 -5 22 -5h246v517h-246q-2 0 -22 -5q-18 -6 -29.5 -21.5t-11.5 -35.5v-387zM193 1188l129 196h124l-180 -196h-73z" />
<glyph unicode="&#xe2;" horiz-adv-x="638" d="M72 129v387q0 51 36 87t87 36h22h246v268q0 22 -11.5 41t-29.5 25q-12 4 -21 4h-163q-9 0 -21 -4q-19 -6 -31 -25t-12 -41v-143h-82v143q0 53 36.5 92t88.5 39h21h163h2h19q52 0 88.5 -39t36.5 -92v-268v-61v-517v-61h-84h-246h-22q-50 0 -86.5 38.5t-36.5 90.5z M123 1188l129 196h137l129 -196h-74l-125 135l-122 -135h-74zM154 129q0 -20 12 -38.5t29 -24.5q20 -5 22 -5h246v517h-246q-2 0 -22 -5q-18 -6 -29.5 -21.5t-11.5 -35.5v-387z" />
<glyph unicode="&#xe3;" horiz-adv-x="638" d="M72 129v387q0 51 36 87t87 36h22h246v268q0 22 -11.5 41t-29.5 25q-12 4 -21 4h-163q-9 0 -21 -4q-19 -6 -31 -25t-12 -41v-143h-82v143q0 53 36.5 92t88.5 39h21h163h2h19q52 0 88.5 -39t36.5 -92v-268v-61v-517v-61h-84h-246h-22q-50 0 -86.5 38.5t-36.5 90.5z M115 1245l82 88q20 25 48.5 26.5t53.5 -18.5l90 -79q18 -14 31 2l65 73l37 -32l-78 -91q-22 -24 -50.5 -25.5t-53.5 19.5l-88 80q-18 11 -31 -2l-69 -74zM154 129q0 -20 12 -38.5t29 -24.5q20 -5 22 -5h246v517h-246q-2 0 -22 -5q-18 -6 -29.5 -21.5t-11.5 -35.5v-387z" />
<glyph unicode="&#xe4;" horiz-adv-x="638" d="M72 129v387q0 51 36 87t87 36h22h246v268q0 22 -11.5 41t-29.5 25q-12 4 -21 4h-163q-9 0 -21 -4q-19 -6 -31 -25t-12 -41v-143h-82v143q0 53 36.5 92t88.5 39h21h163h2h19q52 0 88.5 -39t36.5 -92v-268v-61v-517v-61h-84h-246h-22q-50 0 -86.5 38.5t-36.5 90.5zM154 129 q0 -20 12 -38.5t29 -24.5q20 -5 22 -5h246v517h-246q-2 0 -22 -5q-18 -6 -29.5 -21.5t-11.5 -35.5v-387zM186 1198v182h84v-182h-84zM385 1198v182h84v-182h-84z" />
<glyph unicode="&#xe5;" horiz-adv-x="638" d="M72 129v387q0 51 36 87t87 36h22h246v268q0 22 -11.5 41t-29.5 25q-12 4 -21 4h-163q-9 0 -21 -4q-19 -6 -31 -25t-12 -41v-143h-82v143q0 53 36.5 92t88.5 39h21h163h2h19q52 0 88.5 -39t36.5 -92v-268v-61v-517v-61h-84h-246h-22q-50 0 -86.5 38.5t-36.5 90.5zM154 129 q0 -20 12 -38.5t29 -24.5q20 -5 22 -5h246v517h-246q-2 0 -22 -5q-18 -6 -29.5 -21.5t-11.5 -35.5v-387zM190 1262q0 57 40 96t96 39t95.5 -40.5t39.5 -96.5q0 -57 -39.5 -96.5t-95.5 -39.5t-97 41q-39 39 -39 97zM246 1260q0 -29 22 -58q29 -22 58 -22q33 0 55 24.5 t22 57.5q0 32 -22.5 55.5t-54.5 23.5q-34 -3 -57 -26t-23 -55z" />
<glyph unicode="&#xe6;" horiz-adv-x="1015" d="M70 123v393q0 51 36 87t87 36h22h246v268q0 47 -41 60q-12 4 -21 4h-163q-9 0 -21 -4q-19 -6 -31 -22.5t-12 -37.5v-143h-82v143q0 53 36 89t89 36h21h163h21q46 0 84 -33q33 33 82 33h20h187h20q51 0 87 -36.5t36 -88.5v-329v-62h-82h-309v-393q0 -44 41 -57 q15 -5 20 -5h166q6 0 21 5q18 6 29.5 21.5t11.5 35.5v227h81v-227q0 -51 -35.5 -87t-86.5 -36h-17h-4h-166h-4h-16q-48 0 -82 31q-40 -31 -84 -31h-21h-184h-22q-51 0 -87 36t-36 87zM152 123q0 -20 11.5 -35.5t29.5 -21.5q20 -5 22 -5h184q6 0 21 5q41 13 41 57v393v62 h-246q-2 0 -22 -5q-18 -6 -29.5 -21.5t-11.5 -35.5v-393zM545 578h309v329q0 47 -41 60q-12 4 -20 4h-187q-8 0 -20 -4q-41 -13 -41 -60v-268v-61z" />
<glyph unicode="&#xe7;" horiz-adv-x="641" d="M94 129v778q0 53 36 92t87 39h23h163h21q52 0 88.5 -39t36.5 -92v-184h-84v184q0 22 -11.5 41t-29.5 25q-12 4 -21 4h-163q-7 0 -23 -4q-17 -6 -29 -25t-12 -41v-778q0 -20 12 -38.5t29 -24.5q20 -5 23 -5h163q6 0 21 5q18 6 29.5 24t11.5 39v262h84v-262 q0 -52 -36.5 -90.5t-88.5 -38.5h-21h-163h-23q-50 0 -86.5 38.5t-36.5 90.5zM229 0h82v-70h43q52 0 88.5 -37t36.5 -90t-36.5 -89t-88.5 -36h-125v64h105q14 0 20 4q41 13 41 57q0 47 -41 60q-12 4 -20 4h-105v133z" />
<glyph unicode="&#xe8;" horiz-adv-x="641" d="M90 129v387v62v329q0 53 36 92t87 39h23h184h20q52 0 88.5 -39t36.5 -92v-329v-62h-84h-309v-387q0 -20 12 -38.5t29 -24.5q20 -5 23 -5h163q6 0 21 5q18 6 29.5 24t11.5 39v223h84v-223q0 -52 -36.5 -90.5t-88.5 -38.5h-19h-2h-163h-5h-18q-50 0 -86.5 38.5t-36.5 90.5z M172 578h309v329q0 22 -11.5 41t-29.5 25q-12 4 -20 4h-184q-7 0 -23 -4q-17 -6 -29 -25t-12 -41v-329zM193 1384h124l129 -196h-73z" />
<glyph unicode="&#xe9;" horiz-adv-x="641" d="M90 129v387v62v329q0 53 36 92t87 39h23h184h20q52 0 88.5 -39t36.5 -92v-329v-62h-84h-309v-387q0 -20 12 -38.5t29 -24.5q20 -5 23 -5h163q6 0 21 5q18 6 29.5 24t11.5 39v223h84v-223q0 -52 -36.5 -90.5t-88.5 -38.5h-19h-2h-163h-5h-18q-50 0 -86.5 38.5t-36.5 90.5z M172 578h309v329q0 22 -11.5 41t-29.5 25q-12 4 -20 4h-184q-7 0 -23 -4q-17 -6 -29 -25t-12 -41v-329zM193 1188l129 196h124l-180 -196h-73z" />
<glyph unicode="&#xea;" horiz-adv-x="641" d="M90 129v387v62v329q0 53 36 92t87 39h23h184h20q52 0 88.5 -39t36.5 -92v-329v-62h-84h-309v-387q0 -20 12 -38.5t29 -24.5q20 -5 23 -5h163q6 0 21 5q18 6 29.5 24t11.5 39v223h84v-223q0 -52 -36.5 -90.5t-88.5 -38.5h-19h-2h-163h-5h-18q-50 0 -86.5 38.5t-36.5 90.5z M123 1188l129 196h137l129 -196h-74l-125 135l-122 -135h-74zM172 578h309v329q0 22 -11.5 41t-29.5 25q-12 4 -20 4h-184q-7 0 -23 -4q-17 -6 -29 -25t-12 -41v-329z" />
<glyph unicode="&#xeb;" horiz-adv-x="641" d="M90 129v387v62v329q0 53 36 92t87 39h23h184h20q52 0 88.5 -39t36.5 -92v-329v-62h-84h-309v-387q0 -20 12 -38.5t29 -24.5q20 -5 23 -5h163q6 0 21 5q18 6 29.5 24t11.5 39v223h84v-223q0 -52 -36.5 -90.5t-88.5 -38.5h-19h-2h-163h-5h-18q-50 0 -86.5 38.5t-36.5 90.5z M172 578h309v329q0 22 -11.5 41t-29.5 25q-12 4 -20 4h-184q-7 0 -23 -4q-17 -6 -29 -25t-12 -41v-329zM186 1198v182h84v-182h-84zM385 1198v182h84v-182h-84z" />
<glyph unicode="&#xec;" horiz-adv-x="299" d="M23 1384h124l129 -196h-73zM104 0v1032h84v-1032h-84z" />
<glyph unicode="&#xed;" horiz-adv-x="299" d="M23 1188l129 196h124l-180 -196h-73zM104 0v1032h84v-1032h-84z" />
<glyph unicode="&#xee;" horiz-adv-x="299" d="M-47 1188l129 196h137l129 -196h-74l-124 135l-123 -135h-74zM104 0v1032h84v-1032h-84z" />
<glyph unicode="&#xef;" horiz-adv-x="292" d="M4 1198v182h84v-182h-84zM104 0h84v1032h-84v-1032zM203 1198v182h84v-182h-84z" />
<glyph unicode="&#xf1;" horiz-adv-x="681" d="M115 0v950q0 34 24.5 61t57.5 27h309q35 0 59.5 -27t24.5 -61v-950h-84v950q0 8 -6.5 17.5t-14.5 9.5h-268q-7 0 -13.5 -9.5t-6.5 -17.5v-950h-82zM137 1245l82 88q20 24 49 26.5t54 -18.5l90 -79q17 -14 30 2l66 73l37 -32l-78 -91q-22 -24 -51 -25.5t-54 19.5l-88 80 q-17 10 -30 -2l-70 -74z" />
<glyph unicode="&#xf2;" horiz-adv-x="641" d="M84 129v778q0 53 36 92t87 39h227l17 -2q45 -6 76.5 -43.5t31.5 -85.5v-778q0 -52 -36.5 -90.5t-88.5 -38.5h-227l-17 2q-44 4 -75 42.5t-31 84.5zM166 129q0 -20 12 -38.5t29 -24.5q20 -5 22 -5h185q5 0 20 5q18 6 29.5 24t11.5 39v778q0 22 -11.5 41t-29.5 25 q-12 4 -20 4h-185q-6 0 -22 -4q-17 -6 -29 -25t-12 -41v-778zM193 1384h124l129 -196h-73z" />
<glyph unicode="&#xf3;" horiz-adv-x="641" d="M84 129v778q0 53 36 92t87 39h227l17 -2q45 -6 76.5 -43.5t31.5 -85.5v-778q0 -52 -36.5 -90.5t-88.5 -38.5h-227l-17 2q-44 4 -75 42.5t-31 84.5zM166 129q0 -20 12 -38.5t29 -24.5q20 -5 22 -5h185q5 0 20 5q18 6 29.5 24t11.5 39v778q0 22 -11.5 41t-29.5 25 q-12 4 -20 4h-185q-6 0 -22 -4q-17 -6 -29 -25t-12 -41v-778zM193 1188l129 196h124l-180 -196h-73z" />
<glyph unicode="&#xf4;" horiz-adv-x="641" d="M84 129v778q0 53 36 92t87 39h227l17 -2q45 -6 76.5 -43.5t31.5 -85.5v-778q0 -52 -36.5 -90.5t-88.5 -38.5h-227l-17 2q-44 4 -75 42.5t-31 84.5zM123 1188l129 196h137l129 -196h-74l-125 135l-122 -135h-74zM166 129q0 -20 12 -38.5t29 -24.5q20 -5 22 -5h185 q5 0 20 5q18 6 29.5 24t11.5 39v778q0 22 -11.5 41t-29.5 25q-12 4 -20 4h-185q-6 0 -22 -4q-17 -6 -29 -25t-12 -41v-778z" />
<glyph unicode="&#xf5;" horiz-adv-x="641" d="M84 129v778q0 53 36 92t87 39h227l17 -2q45 -6 76.5 -43.5t31.5 -85.5v-778q0 -52 -36.5 -90.5t-88.5 -38.5h-227l-17 2q-44 4 -75 42.5t-31 84.5zM117 1245l82 88q20 25 48.5 26.5t53.5 -18.5l90 -79q18 -14 31 2l65 73l37 -32l-78 -91q-22 -24 -50.5 -25.5t-53.5 19.5 l-88 80q-18 11 -31 -2l-69 -74zM166 129q0 -20 12 -38.5t29 -24.5q20 -5 22 -5h185q5 0 20 5q18 6 29.5 24t11.5 39v778q0 22 -11.5 41t-29.5 25q-12 4 -20 4h-185q-6 0 -22 -4q-17 -6 -29 -25t-12 -41v-778z" />
<glyph unicode="&#xf6;" horiz-adv-x="641" d="M84 129v778q0 53 36 92t87 39h227l17 -2q45 -6 76.5 -43.5t31.5 -85.5v-778q0 -52 -36.5 -90.5t-88.5 -38.5h-227l-17 2q-44 4 -75 42.5t-31 84.5zM166 129q0 -20 12 -38.5t29 -24.5q20 -5 22 -5h185q5 0 20 5q18 6 29.5 24t11.5 39v778q0 22 -11.5 41t-29.5 25 q-12 4 -20 4h-185q-6 0 -22 -4q-17 -6 -29 -25t-12 -41v-778zM186 1198v182h84v-182h-84zM385 1198v182h84v-182h-84z" />
<glyph unicode="&#xf9;" horiz-adv-x="657" d="M117 129v903h82v-903q0 -20 12 -38.5t29 -24.5q20 -5 22 -5h205v971h84v-971v-61h-289h-22q-50 0 -86.5 38.5t-36.5 90.5zM201 1384h125l129 -196h-74z" />
<glyph unicode="&#xfa;" horiz-adv-x="657" d="M117 129v903h82v-903q0 -20 12 -38.5t29 -24.5q20 -5 22 -5h205v971h84v-971v-61h-289h-22q-50 0 -86.5 38.5t-36.5 90.5zM201 1188l129 196h125l-181 -196h-73z" />
<glyph unicode="&#xfb;" horiz-adv-x="657" d="M117 129v903h82v-903q0 -20 12 -38.5t29 -24.5q20 -5 22 -5h205v971h84v-971v-61h-289h-22q-50 0 -86.5 38.5t-36.5 90.5zM131 1188l129 196h137l129 -196h-73l-125 135l-123 -135h-74z" />
<glyph unicode="&#xfc;" horiz-adv-x="657" d="M117 129v903h82v-903q0 -20 12 -38.5t29 -24.5q20 -5 22 -5h205v971h84v-971v-61h-289h-22q-50 0 -86.5 38.5t-36.5 90.5zM186 1198v182h84v-182h-84zM385 1198v182h84v-182h-84z" />
<glyph unicode="&#xfd;" horiz-adv-x="598" d="M37 1032h80l178 -909l201 909h77l-297 -1362h-77l73 330h-28zM172 1188l129 196h125l-180 -196h-74z" />
<glyph unicode="&#xff;" horiz-adv-x="598" d="M37 1032h80l178 -909l201 909h77l-297 -1362h-77l73 330h-28zM164 1198v182h84v-182h-84zM362 1198v182h84v-182h-84z" />
<glyph unicode="&#x152;" horiz-adv-x="1193" d="M102 186v1074q0 76 55 131t132 55h207q89 0 143 -70q57 70 145 70h330v-62h-330q-44 0 -74 -38t-30 -86v-455h393v-62h-393v-557q0 -48 30 -86.5t74 -38.5h361v-61h-361q-88 0 -145 70q-54 -70 -143 -70h-207q-77 0 -132 55t-55 131zM184 186q0 -48 30 -86.5t75 -38.5 h207q44 0 73 38.5t29 86.5v1074q0 48 -29 86t-73 38h-207q-45 0 -75 -38t-30 -86v-1074z" />
<glyph unicode="&#x153;" horiz-adv-x="1030" d="M84 123v784q0 52 36 88.5t87 36.5h84h143h17v-2q35 -3 67 -31q33 33 82 33h21h186h20q51 0 87 -36.5t36 -88.5v-329v-62h-82h-309v-393q0 -44 41 -57q15 -5 21 -5h165q6 0 21 5q18 6 29.5 21.5t11.5 35.5v227h82v-227q0 -51 -36 -87t-87 -36h-19h-2h-165h-5h-16 q-48 0 -82 31q-40 -31 -84 -31h-82h-145h-17v2q-44 4 -75 39.5t-31 81.5zM166 123q0 -20 11.5 -35.5t29.5 -21.5q20 -5 22 -5h123h62q5 0 20 5q41 13 41 57v393v62v329q0 47 -41 60q-12 4 -20 4h-123h-62q-6 0 -22 -4q-18 -6 -29.5 -22.5t-11.5 -37.5v-784zM559 578h309v329 q0 47 -41 60q-12 4 -20 4h-186q-9 0 -21 -4q-41 -13 -41 -60v-329z" />
<glyph unicode="&#x178;" horiz-adv-x="724" d="M45 1446h84l238 -686l237 686h82l-278 -805v-641h-82v641zM215 1608v182h84v-182h-84zM467 1608v182h84v-182h-84z" />
<glyph unicode="&#x2c6;" horiz-adv-x="649" d="M127 1188l129 196h137l129 -196h-73l-125 135l-123 -135h-74z" />
<glyph unicode="&#x2dc;" horiz-adv-x="636" d="M115 1245l82 88q20 25 48.5 26.5t53.5 -18.5l90 -79q18 -14 31 2l65 73l37 -32l-78 -91q-22 -24 -50.5 -25.5t-53.5 19.5l-88 80q-18 11 -31 -2l-69 -74z" />
<glyph unicode="&#x2000;" horiz-adv-x="905" />
<glyph unicode="&#x2001;" horiz-adv-x="1810" />
<glyph unicode="&#x2002;" horiz-adv-x="905" />
<glyph unicode="&#x2003;" horiz-adv-x="1810" />
<glyph unicode="&#x2004;" horiz-adv-x="603" />
<glyph unicode="&#x2005;" horiz-adv-x="452" />
<glyph unicode="&#x2006;" horiz-adv-x="301" />
<glyph unicode="&#x2007;" horiz-adv-x="301" />
<glyph unicode="&#x2008;" horiz-adv-x="226" />
<glyph unicode="&#x2009;" horiz-adv-x="362" />
<glyph unicode="&#x200a;" horiz-adv-x="100" />
<glyph unicode="&#x2010;" horiz-adv-x="505" d="M72 557v84h362v-84h-362z" />
<glyph unicode="&#x2011;" horiz-adv-x="505" d="M72 557v84h362v-84h-362z" />
<glyph unicode="&#x2012;" horiz-adv-x="505" d="M72 557v84h362v-84h-362z" />
<glyph unicode="&#x2013;" horiz-adv-x="724" d="M174 578v84h350v-84h-350z" />
<glyph unicode="&#x2014;" horiz-adv-x="1157" d="M276 578v84h578v-84h-578z" />
<glyph unicode="&#x2018;" horiz-adv-x="319" d="M84 1032l43 414h94l-71 -414h-66z" />
<glyph unicode="&#x2019;" horiz-adv-x="380" d="M84 1446h94l43 -414h-65z" />
<glyph unicode="&#x201a;" horiz-adv-x="413" d="M156 -186l41 372h82l-82 -372h-41z" />
<glyph unicode="&#x201c;" horiz-adv-x="512" d="M84 1446h94l43 -414h-65zM266 1446h94l29 -414h-65z" />
<glyph unicode="&#x201d;" horiz-adv-x="509" d="M84 1032l29 414h94l-57 -414h-66zM252 1032l43 414h94l-72 -414h-65z" />
<glyph unicode="&#x201e;" horiz-adv-x="661" d="M156 -186l41 372h82l-82 -372h-41zM360 -186l41 372h82l-82 -372h-41z" />
<glyph unicode="&#x2026;" horiz-adv-x="1265" d="M164 0v186h82v-186h-82zM586 0v186h82v-186h-82zM1008 0v186h82v-186h-82z" />
<glyph unicode="&#x202f;" horiz-adv-x="362" />
<glyph unicode="&#x205f;" horiz-adv-x="452" />
<glyph unicode="&#x20ac;" horiz-adv-x="825" d="M33 598v64h123v184h-123v63h123v351q0 77 54 131.5t130 54.5h186q77 0 132 -55t55 -131v-269h-82v269q0 48 -30.5 86t-74.5 38h-186q-44 0 -73 -38t-29 -86v-351h317v-63h-317v-184h317v-64h-317v-412q0 -48 29 -86.5t73 -38.5h186q44 0 74.5 38.5t30.5 86.5v310h82v-310 q0 -75 -51 -129t-125 -57h-197q-76 0 -130 54.5t-54 131.5v412h-123z" />
<glyph unicode="&#x2122;" horiz-adv-x="1265" d="M160 1382v64h329v-64h-122v-598h-84v598h-123zM551 784v662h63h21h61l99 -453l108 453h62h20h62v-662h-82v566l-123 -566h-97l-110 557v-557h-84z" />
<glyph unicode="&#xe000;" horiz-adv-x="1034" d="M0 0v1034h1034v-1034h-1034z" />
<glyph unicode="&#xfb01;" horiz-adv-x="661" d="M37 971v61h123v289q0 52 37 88.5t88 36.5h20h82v-62h-82q-8 0 -20 -4q-41 -13 -41 -59v-289h227h61h21v-1032h-82v971h-227v-971h-84v971h-123zM471 1157v164h82v-164h-82z" />
<glyph unicode="&#xfb02;" horiz-adv-x="645" d="M43 971v61h123v289q0 52 37 88.5t88 36.5h20h146h61h21v-1446h-82v1384h-146q-8 0 -20 -4q-41 -13 -41 -59v-289h123v-61h-123v-971h-84v971h-123z" />
</font>
</defs>
</svg>
